<svg width="146" height="42" viewBox="0 0 146 42" fill="none" xmlns="http://www.w3.org/2000/svg">
<path d="M7.61657 8.35268C9.75475 7.07727 12.2806 6.57711 14.7689 6.5646C16.5694 6.5521 18.3825 6.80218 20.0456 7.4774C21.0209 7.87752 21.9462 8.4277 22.7339 9.11542C22.4338 8.61526 22.1212 8.1276 21.7586 7.68996C19.9955 5.53928 17.1946 4.48894 14.4438 4.16383C12.168 3.90125 9.80477 4.10131 7.64157 4.85155C7.82913 4.42642 7.94167 3.95127 7.94167 3.45111C7.92917 1.5505 6.37867 0 4.47806 0C2.57745 0 1.02696 1.5505 1.02696 3.45111C1.02696 5.17666 2.30236 6.61462 3.9654 6.8647C1.91474 8.51523 0.439267 10.8785 0.0766509 13.4793C-0.348485 16.6178 1.01445 20.0064 3.6778 21.707C5.5409 22.8948 7.82913 23.2074 10.0423 23.2199C12.4056 23.2449 14.7814 22.9574 17.0696 22.3947C12.5682 22.8573 7.76661 22.3197 5.66594 20.7942C3.6528 19.3312 2.77752 16.5928 3.27768 14.1545C3.76533 11.7163 5.47838 9.62809 7.61657 8.35268Z" fill="url(#paint0_radial_49_1322)"/>
<path d="M25.1348 27.246C25.5599 24.1075 24.197 20.7189 21.5336 19.0184C19.6705 17.8305 17.3823 17.5179 15.1691 17.5054C12.8058 17.4804 10.4301 17.768 8.14185 18.3307C12.6433 17.868 17.4448 18.4057 19.5455 19.9312C21.5587 21.3942 22.4339 24.1325 21.9338 26.5708C21.4461 29.0091 19.7331 31.0973 17.5949 32.3727C15.4567 33.6481 12.9309 34.1482 10.4426 34.1607C8.64201 34.1733 6.82893 33.9232 5.1659 33.248C4.19059 32.8478 3.26529 32.2976 2.47754 31.6099C2.77764 32.1101 3.09024 32.5977 3.45285 33.0354C5.21592 35.1861 8.01681 36.2364 10.7677 36.5615C13.0434 36.8241 15.4067 36.624 17.5699 35.8738C17.3823 36.2989 17.2698 36.7741 17.2698 37.2742C17.2698 39.1749 18.8203 40.7254 20.7209 40.7254C22.6215 40.7254 24.172 39.1749 24.172 37.2742C24.172 35.5487 22.8966 34.1107 21.2335 33.8606C23.2967 32.2101 24.7722 29.8469 25.1348 27.246Z" fill="url(#paint1_radial_49_1322)"/>
<path d="M46.1076 21.8425C46.1076 21.338 46.0285 20.8929 45.8702 20.5072C45.7219 20.1116 45.4548 19.7555 45.0691 19.439C44.6932 19.1225 44.169 18.8208 43.4964 18.534C42.8337 18.2471 41.993 17.9554 40.9743 17.6586C39.9061 17.3421 38.9417 16.991 38.0812 16.6053C37.2207 16.2096 36.4838 15.7596 35.8706 15.2552C35.2573 14.7507 34.7875 14.1721 34.4611 13.5193C34.1347 12.8665 33.9715 12.1197 33.9715 11.279C33.9715 10.4383 34.1446 9.66187 34.4908 8.94972C34.837 8.23758 35.3315 7.6194 35.9744 7.09519C36.6272 6.56108 37.4037 6.14566 38.3037 5.84894C39.2038 5.55221 40.2077 5.40385 41.3155 5.40385C42.9376 5.40385 44.3124 5.71541 45.44 6.33854C46.5774 6.95177 47.4429 7.75788 48.0363 8.75685C48.6298 9.74594 48.9265 10.8043 48.9265 11.9318H46.078C46.078 11.1208 45.9049 10.4037 45.5587 9.78056C45.2125 9.14754 44.6883 8.653 43.986 8.29693C43.2838 7.93097 42.3936 7.74798 41.3155 7.74798C40.2967 7.74798 39.456 7.90129 38.7933 8.20791C38.1306 8.51453 37.6361 8.92994 37.3097 9.45416C36.9932 9.97837 36.8349 10.5768 36.8349 11.2494C36.8349 11.7043 36.9289 12.1197 37.1168 12.4956C37.3146 12.8616 37.6163 13.2028 38.0218 13.5193C38.4373 13.8358 38.9615 14.1276 39.5945 14.3946C40.2374 14.6617 41.0039 14.9189 41.8941 15.1661C43.1206 15.5123 44.1789 15.8981 45.0691 16.3234C45.9593 16.7487 46.6912 17.2284 47.2649 17.7625C47.8484 18.2867 48.2787 18.8851 48.5556 19.5577C48.8424 20.2204 48.9859 20.9721 48.9859 21.8128C48.9859 22.6931 48.8078 23.4893 48.4518 24.2014C48.0957 24.9136 47.5863 25.5219 46.9236 26.0263C46.2609 26.5307 45.4647 26.9214 44.535 27.1984C43.6151 27.4654 42.5865 27.599 41.449 27.599C40.45 27.599 39.4659 27.4605 38.4966 27.1835C37.5372 26.9066 36.6618 26.4912 35.8706 25.9373C35.0892 25.3834 34.4611 24.7009 33.9864 23.8899C33.5215 23.0689 33.2891 22.1194 33.2891 21.0413H36.1376C36.1376 21.7831 36.281 22.4211 36.5679 22.9552C36.8547 23.4794 37.2454 23.9146 37.74 24.2608C38.2444 24.607 38.8131 24.8641 39.4461 25.0323C40.089 25.1905 40.7567 25.2697 41.449 25.2697C42.448 25.2697 43.2937 25.1312 43.986 24.8542C44.6784 24.5773 45.2026 24.1817 45.5587 23.6673C45.9246 23.153 46.1076 22.5447 46.1076 21.8425Z" fill="#064469"/>
<path d="M51.4932 19.4538V19.1126C51.4932 17.9554 51.6613 16.8822 51.9976 15.8931C52.3339 14.8941 52.8186 14.0287 53.4516 13.2968C54.0846 12.5549 54.8511 11.9813 55.7512 11.5757C56.6513 11.1603 57.6602 10.9526 58.7778 10.9526C59.9054 10.9526 60.9192 11.1603 61.8193 11.5757C62.7292 11.9813 63.5007 12.5549 64.1337 13.2968C64.7766 14.0287 65.2662 14.8941 65.6025 15.8931C65.9388 16.8822 66.107 17.9554 66.107 19.1126V19.4538C66.107 20.6111 65.9388 21.6842 65.6025 22.6733C65.2662 23.6624 64.7766 24.5278 64.1337 25.2697C63.5007 26.0016 62.7342 26.5752 61.8341 26.9907C60.9439 27.3962 59.9351 27.599 58.8075 27.599C57.6799 27.599 56.6661 27.3962 55.7661 26.9907C54.866 26.5752 54.0945 26.0016 53.4516 25.2697C52.8186 24.5278 52.3339 23.6624 51.9976 22.6733C51.6613 21.6842 51.4932 20.6111 51.4932 19.4538ZM54.2379 19.1126V19.4538C54.2379 20.255 54.3319 21.0116 54.5198 21.7238C54.7077 22.426 54.9896 23.0492 55.3655 23.5932C55.7512 24.1371 56.2309 24.5674 56.8046 24.8839C57.3783 25.1905 58.0459 25.3438 58.8075 25.3438C59.5592 25.3438 60.2169 25.1905 60.7807 24.8839C61.3544 24.5674 61.8292 24.1371 62.205 23.5932C62.5809 23.0492 62.8627 22.426 63.0507 21.7238C63.2485 21.0116 63.3474 20.255 63.3474 19.4538V19.1126C63.3474 18.3213 63.2485 17.5746 63.0507 16.8723C62.8627 16.1602 62.5759 15.5321 62.1902 14.9881C61.8143 14.4342 61.3396 13.999 60.7659 13.6825C60.2021 13.366 59.5394 13.2077 58.7778 13.2077C58.0261 13.2077 57.3634 13.366 56.7898 13.6825C56.226 13.999 55.7512 14.4342 55.3655 14.9881C54.9896 15.5321 54.7077 16.1602 54.5198 16.8723C54.3319 17.5746 54.2379 18.3213 54.2379 19.1126Z" fill="#064469"/>
<path d="M75.9731 25.3438C76.6259 25.3438 77.2292 25.2103 77.7831 24.9433C78.337 24.6762 78.792 24.3102 79.1481 23.8454C79.5041 23.3706 79.7069 22.8316 79.7563 22.2282H82.3675C82.3181 23.1777 81.9966 24.063 81.4032 24.8839C80.8196 25.695 80.0531 26.3527 79.1035 26.8571C78.154 27.3517 77.1105 27.599 75.9731 27.599C74.7664 27.599 73.713 27.3863 72.813 26.961C71.9228 26.5357 71.181 25.9521 70.5875 25.2103C70.004 24.4685 69.5638 23.6179 69.2671 22.6585C68.9802 21.6892 68.8368 20.6655 68.8368 19.5873V18.9642C68.8368 17.8861 68.9802 16.8674 69.2671 15.9079C69.5638 14.9386 70.004 14.0831 70.5875 13.3413C71.181 12.5995 71.9228 12.0159 72.813 11.5906C73.713 11.1653 74.7664 10.9526 75.9731 10.9526C77.2292 10.9526 78.3271 11.2098 79.2667 11.7241C80.2064 12.2285 80.9432 12.9209 81.4774 13.8012C82.0214 14.6716 82.3181 15.6607 82.3675 16.7685H79.7563C79.7069 16.1058 79.519 15.5074 79.1926 14.9733C78.8761 14.4392 78.4409 14.0138 77.887 13.6973C77.343 13.3709 76.705 13.2077 75.9731 13.2077C75.1324 13.2077 74.4252 13.3759 73.8515 13.7122C73.2877 14.0386 72.8377 14.4837 72.5014 15.0474C72.175 15.6013 71.9376 16.2195 71.7893 16.902C71.6508 17.5746 71.5815 18.262 71.5815 18.9642V19.5873C71.5815 20.2896 71.6508 20.982 71.7893 21.6644C71.9277 22.3469 72.1602 22.9651 72.4866 23.519C72.8228 24.0729 73.2729 24.5179 73.8367 24.8542C74.4103 25.1806 75.1225 25.3438 75.9731 25.3438Z" fill="#064469"/>
<path d="M88.4356 11.2494V27.3022H85.676V11.2494H88.4356ZM85.4683 6.99133C85.4683 6.54624 85.6018 6.17039 85.8689 5.86377C86.1458 5.55716 86.5514 5.40385 87.0855 5.40385C87.6097 5.40385 88.0103 5.55716 88.2872 5.86377C88.5741 6.17039 88.7175 6.54624 88.7175 6.99133C88.7175 7.41664 88.5741 7.7826 88.2872 8.08922C88.0103 8.38595 87.6097 8.53431 87.0855 8.53431C86.5514 8.53431 86.1458 8.38595 85.8689 8.08922C85.6018 7.7826 85.4683 7.41664 85.4683 6.99133Z" fill="#064469"/>
<path d="M102.308 24.5575V16.2937C102.308 15.6607 102.179 15.1117 101.922 14.6469C101.674 14.1721 101.299 13.8061 100.794 13.549C100.29 13.2918 99.6667 13.1632 98.9248 13.1632C98.2325 13.1632 97.6242 13.2819 97.1 13.5193C96.5857 13.7567 96.1801 14.0682 95.8834 14.454C95.5966 14.8397 95.4531 15.2552 95.4531 15.7002H92.7084C92.7084 15.1266 92.8568 14.5578 93.1535 13.9941C93.4502 13.4303 93.8756 12.9209 94.4294 12.4659C94.9932 12.0011 95.6658 11.6351 96.4472 11.368C97.2384 11.0911 98.1187 10.9526 99.088 10.9526C100.255 10.9526 101.284 11.1504 102.174 11.5461C103.074 11.9417 103.776 12.5401 104.281 13.3413C104.795 14.1325 105.052 15.1266 105.052 16.3234V23.8009C105.052 24.335 105.097 24.9037 105.186 25.507C105.285 26.1104 105.428 26.6296 105.616 27.0648V27.3022H102.753C102.614 26.9857 102.505 26.5654 102.426 26.0411C102.347 25.507 102.308 25.0125 102.308 24.5575ZM102.782 17.5696L102.812 19.4983H100.038C99.2562 19.4983 98.5589 19.5626 97.9456 19.6912C97.3324 19.8099 96.8181 19.9929 96.4027 20.2401C95.9873 20.4874 95.6707 20.799 95.4531 21.1748C95.2355 21.5408 95.1268 21.971 95.1268 22.4656C95.1268 22.97 95.2405 23.43 95.468 23.8454C95.6955 24.2608 96.0367 24.5921 96.4917 24.8394C96.9566 25.0768 97.5253 25.1955 98.1979 25.1955C99.0386 25.1955 99.7804 25.0174 100.423 24.6614C101.066 24.3053 101.576 23.8701 101.951 23.3558C102.337 22.8414 102.545 22.342 102.575 21.8573L103.747 23.1777C103.677 23.5932 103.489 24.0531 103.183 24.5575C102.876 25.0619 102.466 25.5466 101.951 26.0115C101.447 26.4664 100.844 26.8472 100.141 27.1539C99.4491 27.4506 98.6677 27.599 97.7973 27.599C96.7093 27.599 95.7548 27.3863 94.9339 26.961C94.1228 26.5357 93.4898 25.967 93.0348 25.2548C92.5897 24.5328 92.3672 23.7267 92.3672 22.8365C92.3672 21.976 92.5353 21.2193 92.8716 20.5665C93.2079 19.9039 93.6926 19.3549 94.3256 18.9197C94.9586 18.4746 95.7202 18.1383 96.6104 17.9108C97.5006 17.6834 98.4946 17.5696 99.5925 17.5696H102.782Z" fill="#064469"/>
<path d="M112.352 4.51367V27.3022H109.592V4.51367H112.352Z" fill="#064469"/>
<path d="M119.74 11.2494V27.3022H116.981V11.2494H119.74ZM116.773 6.99133C116.773 6.54624 116.906 6.17039 117.173 5.86377C117.45 5.55716 117.856 5.40385 118.39 5.40385C118.914 5.40385 119.315 5.55716 119.592 5.86377C119.879 6.17039 120.022 6.54624 120.022 6.99133C120.022 7.41664 119.879 7.7826 119.592 8.08922C119.315 8.38595 118.914 8.53431 118.39 8.53431C117.856 8.53431 117.45 8.38595 117.173 8.08922C116.906 7.7826 116.773 7.41664 116.773 6.99133Z" fill="#064469"/>
<path d="M130.867 11.2494V13.3561H122.188V11.2494H130.867ZM125.126 7.3474H127.87V23.3261C127.87 23.8701 127.955 24.2806 128.123 24.5575C128.291 24.8345 128.508 25.0174 128.775 25.1065C129.043 25.1955 129.329 25.24 129.636 25.24C129.863 25.24 130.101 25.2202 130.348 25.1806C130.605 25.1312 130.798 25.0916 130.927 25.0619L130.942 27.3022C130.724 27.3715 130.437 27.4358 130.081 27.4951C129.735 27.5643 129.315 27.599 128.82 27.599C128.147 27.599 127.529 27.4654 126.965 27.1984C126.402 26.9313 125.952 26.4862 125.615 25.8631C125.289 25.2301 125.126 24.3795 125.126 23.3113V7.3474Z" fill="#064469"/>
<path d="M138.597 25.6406L143.063 11.2494H146L139.561 29.7799C139.413 30.1755 139.215 30.6008 138.968 31.0558C138.731 31.5207 138.424 31.9608 138.048 32.3762C137.672 32.7917 137.217 33.1279 136.683 33.3851C136.159 33.6522 135.531 33.7857 134.799 33.7857C134.581 33.7857 134.304 33.756 133.968 33.6967C133.632 33.6373 133.395 33.5879 133.256 33.5483L133.241 31.3229C133.32 31.3328 133.444 31.3426 133.612 31.3525C133.79 31.3723 133.914 31.3822 133.983 31.3822C134.606 31.3822 135.135 31.2981 135.57 31.13C136.006 30.9717 136.372 30.6997 136.668 30.314C136.975 29.9381 137.237 29.4189 137.455 28.7562L138.597 25.6406ZM135.318 11.2494L139.487 23.7118L140.199 26.6049L138.226 27.6138L132.321 11.2494H135.318Z" fill="#064469"/>
<path d="M35.9406 34.2059H36.6792V37.9946C36.6792 38.4152 36.5856 38.7652 36.3984 39.0447C36.2112 39.3242 35.9624 39.5345 35.6522 39.6755C35.3444 39.814 35.0098 39.8832 34.6482 39.8832C34.2687 39.8832 33.9251 39.814 33.6174 39.6755C33.3122 39.5345 33.0699 39.3242 32.8904 39.0447C32.7135 38.7652 32.625 38.4152 32.625 37.9946V34.2059H33.3597V37.9946C33.3597 38.287 33.4135 38.528 33.5212 38.7178C33.6289 38.9075 33.7789 39.0486 33.9713 39.1409C34.1661 39.2332 34.3918 39.2793 34.6482 39.2793C34.9072 39.2793 35.1329 39.2332 35.3252 39.1409C35.5201 39.0486 35.6714 38.9075 35.7791 38.7178C35.8868 38.528 35.9406 38.287 35.9406 37.9946V34.2059Z" fill="#064469"/>
<path d="M38.4485 36.533V39.8063H37.7369V35.6444H38.4101L38.4485 36.533ZM38.2793 37.5677L37.9831 37.5561C37.9857 37.2715 38.028 37.0087 38.11 36.7676C38.1921 36.524 38.3075 36.3124 38.4562 36.1329C38.6049 35.9534 38.7819 35.815 38.987 35.7175C39.1947 35.6175 39.4242 35.5675 39.6755 35.5675C39.8807 35.5675 40.0653 35.5957 40.2294 35.6521C40.3935 35.706 40.5333 35.7932 40.6487 35.9137C40.7666 36.0342 40.8564 36.1906 40.9179 36.383C40.9795 36.5727 41.0103 36.8048 41.0103 37.0792V39.8063H40.2948V37.0715C40.2948 36.8535 40.2628 36.6791 40.1987 36.5484C40.1345 36.415 40.041 36.3189 39.9179 36.2599C39.7948 36.1983 39.6435 36.1676 39.464 36.1676C39.287 36.1676 39.1255 36.2047 38.9793 36.2791C38.8357 36.3535 38.7114 36.456 38.6062 36.5868C38.5037 36.7176 38.4229 36.8676 38.3639 37.0369C38.3075 37.2035 38.2793 37.3805 38.2793 37.5677Z" fill="#064469"/>
<path d="M42.8642 35.6444V39.8063H42.1488V35.6444H42.8642ZM42.095 34.5405C42.095 34.4251 42.1296 34.3277 42.1988 34.2482C42.2706 34.1687 42.3757 34.1289 42.5142 34.1289C42.6501 34.1289 42.754 34.1687 42.8258 34.2482C42.9001 34.3277 42.9373 34.4251 42.9373 34.5405C42.9373 34.6508 42.9001 34.7457 42.8258 34.8252C42.754 34.9021 42.6501 34.9405 42.5142 34.9405C42.3757 34.9405 42.2706 34.9021 42.1988 34.8252C42.1296 34.7457 42.095 34.6508 42.095 34.5405Z" fill="#064469"/>
<path d="M45.0683 39.8063H44.3567V35.206C44.3567 34.9059 44.4105 34.6533 44.5182 34.4482C44.6285 34.2405 44.7862 34.0841 44.9913 33.9789C45.1965 33.8712 45.4401 33.8174 45.7222 33.8174C45.8042 33.8174 45.8863 33.8225 45.9683 33.8328C46.0529 33.843 46.135 33.8584 46.2145 33.8789L46.176 34.4597C46.1222 34.4469 46.0606 34.4379 45.9914 34.4328C45.9247 34.4277 45.8581 34.4251 45.7914 34.4251C45.6401 34.4251 45.5093 34.4559 45.3991 34.5174C45.2914 34.5764 45.2093 34.6636 45.1529 34.779C45.0965 34.8944 45.0683 35.0367 45.0683 35.206V39.8063ZM45.9529 35.6444V36.1906H43.6989V35.6444H45.9529Z" fill="#064469"/>
<path d="M47.9146 39.3755L49.0724 35.6444H49.834L48.1646 40.4487C48.1262 40.5512 48.0749 40.6615 48.0108 40.7795C47.9492 40.9 47.8698 41.0141 47.7723 41.1218C47.6749 41.2295 47.5569 41.3167 47.4184 41.3833C47.2825 41.4526 47.1197 41.4872 46.9299 41.4872C46.8735 41.4872 46.8017 41.4795 46.7145 41.4641C46.6274 41.4487 46.5658 41.4359 46.5299 41.4257L46.5261 40.8487C46.5466 40.8513 46.5786 40.8538 46.6222 40.8564C46.6684 40.8615 46.7004 40.8641 46.7184 40.8641C46.8799 40.8641 47.0171 40.8423 47.13 40.7987C47.2428 40.7577 47.3377 40.6871 47.4146 40.5871C47.4941 40.4897 47.562 40.3551 47.6185 40.1833L47.9146 39.3755ZM47.0646 35.6444L48.1454 38.8755L48.33 39.6255L47.8185 39.8871L46.2876 35.6444H47.0646Z" fill="#064469"/>
<path d="M51.2495 35.6444V39.8063H50.5341V35.6444H51.2495ZM50.4802 34.5405C50.4802 34.4251 50.5148 34.3277 50.5841 34.2482C50.6559 34.1687 50.761 34.1289 50.8995 34.1289C51.0354 34.1289 51.1392 34.1687 51.211 34.2482C51.2854 34.3277 51.3226 34.4251 51.3226 34.5405C51.3226 34.6508 51.2854 34.7457 51.211 34.8252C51.1392 34.9021 51.0354 34.9405 50.8995 34.9405C50.761 34.9405 50.6559 34.9021 50.5841 34.8252C50.5148 34.7457 50.4802 34.6508 50.4802 34.5405Z" fill="#064469"/>
<path d="M53.1035 36.533V39.8063H52.3919V35.6444H53.065L53.1035 36.533ZM52.9342 37.5677L52.6381 37.5561C52.6406 37.2715 52.6829 37.0087 52.765 36.7676C52.8471 36.524 52.9625 36.3124 53.1112 36.1329C53.2599 35.9534 53.4368 35.815 53.642 35.7175C53.8497 35.6175 54.0792 35.5675 54.3305 35.5675C54.5356 35.5675 54.7203 35.5957 54.8844 35.6521C55.0485 35.706 55.1883 35.7932 55.3037 35.9137C55.4216 36.0342 55.5114 36.1906 55.5729 36.383C55.6344 36.5727 55.6652 36.8048 55.6652 37.0792V39.8063H54.9498V37.0715C54.9498 36.8535 54.9177 36.6791 54.8536 36.5484C54.7895 36.415 54.6959 36.3189 54.5728 36.2599C54.4497 36.1983 54.2984 36.1676 54.1189 36.1676C53.942 36.1676 53.7805 36.2047 53.6343 36.2791C53.4907 36.3535 53.3663 36.456 53.2612 36.5868C53.1586 36.7176 53.0778 36.8676 53.0189 37.0369C52.9625 37.2035 52.9342 37.3805 52.9342 37.5677Z" fill="#064469"/>
<path d="M59.4424 35.6444H60.0886V39.7178C60.0886 40.0845 60.0143 40.3974 59.8655 40.6564C59.7168 40.9154 59.5091 41.1115 59.2424 41.2449C58.9783 41.3808 58.6731 41.4487 58.327 41.4487C58.1834 41.4487 58.0141 41.4257 57.8192 41.3795C57.6269 41.3359 57.4372 41.2603 57.25 41.1526C57.0653 41.0474 56.9102 40.9051 56.7845 40.7256L57.1576 40.3025C57.332 40.5128 57.5141 40.6589 57.7038 40.741C57.8962 40.823 58.0859 40.8641 58.2731 40.8641C58.4988 40.8641 58.6937 40.8218 58.8578 40.7371C59.0219 40.6525 59.1488 40.5269 59.2386 40.3602C59.3309 40.1961 59.377 39.9935 59.377 39.7525V36.5599L59.4424 35.6444ZM56.5768 37.7715V37.6908C56.5768 37.3728 56.614 37.0843 56.6884 36.8253C56.7653 36.5637 56.8743 36.3394 57.0153 36.1522C57.1589 35.965 57.332 35.8214 57.5346 35.7214C57.7372 35.6188 57.9654 35.5675 58.2193 35.5675C58.4808 35.5675 58.709 35.6137 58.9039 35.706C59.1014 35.7957 59.2681 35.9278 59.404 36.1022C59.5424 36.274 59.6514 36.4817 59.7309 36.7253C59.8104 36.9689 59.8655 37.2446 59.8963 37.5523V37.9062C59.8681 38.2113 59.813 38.4857 59.7309 38.7293C59.6514 38.9729 59.5424 39.1806 59.404 39.3524C59.2681 39.5242 59.1014 39.6563 58.9039 39.7486C58.7065 39.8384 58.4757 39.8832 58.2116 39.8832C57.9628 39.8832 57.7372 39.8307 57.5346 39.7255C57.3346 39.6204 57.1628 39.4729 57.0192 39.2832C56.8756 39.0934 56.7653 38.8703 56.6884 38.6139C56.614 38.3549 56.5768 38.0741 56.5768 37.7715ZM57.2884 37.6908V37.7715C57.2884 37.9792 57.3089 38.1741 57.35 38.3562C57.3936 38.5383 57.4589 38.6985 57.5461 38.837C57.6359 38.9755 57.75 39.0845 57.8885 39.1639C58.0269 39.2409 58.1923 39.2793 58.3847 39.2793C58.6206 39.2793 58.8155 39.2293 58.9693 39.1293C59.1232 39.0293 59.245 38.8973 59.3347 38.7331C59.427 38.569 59.4988 38.3908 59.5501 38.1985V37.2715C59.5219 37.1305 59.4783 36.9945 59.4194 36.8638C59.3629 36.7304 59.2886 36.6125 59.1963 36.5099C59.1065 36.4048 58.995 36.3214 58.8616 36.2599C58.7283 36.1983 58.5719 36.1676 58.3924 36.1676C58.1975 36.1676 58.0295 36.2086 57.8885 36.2906C57.75 36.3701 57.6359 36.4804 57.5461 36.6214C57.4589 36.7599 57.3936 36.9215 57.35 37.1061C57.3089 37.2882 57.2884 37.483 57.2884 37.6908Z" fill="#064469"/>
<path d="M64.0274 34.2059V39.8063H63.285V34.2059H64.0274Z" fill="#064469"/>
<path d="M65.9775 36.4714V39.8063H65.2621V35.6444H65.9391L65.9775 36.4714ZM65.8314 37.5677L65.5006 37.5561C65.5032 37.2715 65.5403 37.0087 65.6121 36.7676C65.6839 36.524 65.7904 36.3124 65.9314 36.1329C66.0724 35.9534 66.2481 35.815 66.4584 35.7175C66.6686 35.6175 66.9122 35.5675 67.1892 35.5675C67.3841 35.5675 67.5636 35.5957 67.7277 35.6521C67.8918 35.706 68.0341 35.7919 68.1546 35.9099C68.2752 36.0278 68.3688 36.1791 68.4354 36.3637C68.5021 36.5484 68.5354 36.7715 68.5354 37.033V39.8063H67.8238V37.0676C67.8238 36.8497 67.7867 36.6753 67.7123 36.5445C67.6405 36.4137 67.5379 36.3189 67.4046 36.2599C67.2712 36.1983 67.1148 36.1676 66.9353 36.1676C66.725 36.1676 66.5494 36.2047 66.4083 36.2791C66.2673 36.3535 66.1545 36.456 66.0699 36.5868C65.9852 36.7176 65.9237 36.8676 65.8852 37.0369C65.8493 37.2035 65.8314 37.3805 65.8314 37.5677ZM68.5277 37.1753L68.0508 37.3215C68.0533 37.0933 68.0905 36.874 68.1623 36.6638C68.2367 36.4535 68.3431 36.2663 68.4816 36.1022C68.6226 35.9381 68.7957 35.8086 69.0009 35.7137C69.206 35.6162 69.4406 35.5675 69.7048 35.5675C69.9278 35.5675 70.1253 35.597 70.2971 35.656C70.4715 35.715 70.6176 35.806 70.7356 35.9291C70.8561 36.0496 70.9472 36.2047 71.0087 36.3945C71.0702 36.5843 71.101 36.8099 71.101 37.0715V39.8063H70.3856V37.0638C70.3856 36.8304 70.3484 36.6497 70.274 36.5214C70.2022 36.3907 70.0997 36.2996 69.9663 36.2483C69.8355 36.1945 69.6791 36.1676 69.497 36.1676C69.3406 36.1676 69.2022 36.1945 69.0816 36.2483C68.9611 36.3022 68.8598 36.3766 68.7778 36.4714C68.6957 36.5637 68.6329 36.6702 68.5893 36.7907C68.5483 36.9112 68.5277 37.0394 68.5277 37.1753Z" fill="#064469"/>
<path d="M72.8896 36.4445V41.4064H72.1742V35.6444H72.8281L72.8896 36.4445ZM75.6937 37.6908V37.7715C75.6937 38.0741 75.6578 38.3549 75.586 38.6139C75.5142 38.8703 75.409 39.0934 75.2706 39.2832C75.1347 39.4729 74.9667 39.6204 74.7667 39.7255C74.5667 39.8307 74.3372 39.8832 74.0782 39.8832C73.814 39.8832 73.5807 39.8396 73.3781 39.7525C73.1755 39.6653 73.0037 39.5383 72.8627 39.3717C72.7216 39.205 72.6088 39.005 72.5242 38.7716C72.4421 38.5383 72.3857 38.2754 72.355 37.9831V37.5523C72.3857 37.2446 72.4434 36.9689 72.528 36.7253C72.6127 36.4817 72.7242 36.274 72.8627 36.1022C73.0037 35.9278 73.1742 35.7957 73.3743 35.706C73.5743 35.6137 73.8051 35.5675 74.0666 35.5675C74.3282 35.5675 74.5603 35.6188 74.7628 35.7214C74.9654 35.8214 75.1359 35.965 75.2744 36.1522C75.4129 36.3394 75.5167 36.5637 75.586 36.8253C75.6578 37.0843 75.6937 37.3728 75.6937 37.6908ZM74.9782 37.7715V37.6908C74.9782 37.483 74.9564 37.2882 74.9128 37.1061C74.8693 36.9215 74.8013 36.7599 74.709 36.6214C74.6192 36.4804 74.5038 36.3701 74.3628 36.2906C74.2218 36.2086 74.0538 36.1676 73.8589 36.1676C73.6794 36.1676 73.523 36.1983 73.3896 36.2599C73.2589 36.3214 73.1473 36.4048 73.055 36.5099C72.9627 36.6125 72.887 36.7304 72.8281 36.8638C72.7717 36.9945 72.7293 37.1305 72.7011 37.2715V38.2677C72.7524 38.4472 72.8242 38.6165 72.9165 38.7755C73.0089 38.9319 73.1319 39.0588 73.2858 39.1563C73.4397 39.2511 73.6333 39.2986 73.8666 39.2986C74.0589 39.2986 74.2243 39.2588 74.3628 39.1793C74.5038 39.0973 74.6192 38.9857 74.709 38.8447C74.8013 38.7037 74.8693 38.5421 74.9128 38.36C74.9564 38.1754 74.9782 37.9792 74.9782 37.7715Z" fill="#064469"/>
<path d="M79.0555 39.0947V36.9522C79.0555 36.7881 79.0221 36.6458 78.9555 36.5253C78.8914 36.4022 78.7939 36.3073 78.6631 36.2406C78.5323 36.174 78.3708 36.1406 78.1785 36.1406C77.999 36.1406 77.8413 36.1714 77.7054 36.233C77.572 36.2945 77.4669 36.3753 77.39 36.4753C77.3156 36.5753 77.2784 36.683 77.2784 36.7984H76.5668C76.5668 36.6497 76.6053 36.5022 76.6822 36.356C76.7591 36.2099 76.8694 36.0778 77.013 35.9599C77.1592 35.8393 77.3335 35.7445 77.5361 35.6752C77.7413 35.6034 77.9695 35.5675 78.2208 35.5675C78.5234 35.5675 78.7901 35.6188 79.0208 35.7214C79.2542 35.8239 79.4363 35.9791 79.567 36.1868C79.7004 36.3919 79.7671 36.6497 79.7671 36.9599V38.8985C79.7671 39.037 79.7786 39.1845 79.8017 39.3409C79.8273 39.4973 79.8645 39.6319 79.9132 39.7448V39.8063H79.1709C79.135 39.7242 79.1068 39.6153 79.0862 39.4794C79.0657 39.3409 79.0555 39.2127 79.0555 39.0947ZM79.1786 37.283L79.1862 37.7831H78.467C78.2644 37.7831 78.0836 37.7997 77.9246 37.8331C77.7656 37.8638 77.6323 37.9113 77.5246 37.9754C77.4169 38.0395 77.3348 38.1203 77.2784 38.2177C77.222 38.3126 77.1938 38.4241 77.1938 38.5524C77.1938 38.6831 77.2233 38.8024 77.2823 38.9101C77.3412 39.0178 77.4297 39.1037 77.5477 39.1678C77.6682 39.2293 77.8156 39.2601 77.99 39.2601C78.208 39.2601 78.4003 39.2139 78.567 39.1216C78.7336 39.0293 78.8657 38.9165 78.9632 38.7831C79.0632 38.6498 79.117 38.5203 79.1247 38.3947L79.4286 38.737C79.4106 38.8447 79.3619 38.9639 79.2824 39.0947C79.2029 39.2255 79.0965 39.3511 78.9632 39.4717C78.8324 39.5896 78.6759 39.6883 78.4939 39.7678C78.3144 39.8448 78.1118 39.8832 77.8861 39.8832C77.6041 39.8832 77.3566 39.8281 77.1438 39.7178C76.9335 39.6076 76.7694 39.4601 76.6514 39.2755C76.536 39.0883 76.4783 38.8793 76.4783 38.6485C76.4783 38.4254 76.5219 38.2293 76.6091 38.06C76.6963 37.8882 76.822 37.7459 76.9861 37.6331C77.1502 37.5177 77.3476 37.4305 77.5784 37.3715C77.8092 37.3125 78.0669 37.283 78.3516 37.283H79.1786Z" fill="#064469"/>
<path d="M82.5519 39.2986C82.7211 39.2986 82.8776 39.264 83.0212 39.1947C83.1648 39.1255 83.2827 39.0306 83.375 38.9101C83.4673 38.787 83.5199 38.6472 83.5327 38.4908H84.2097C84.1969 38.737 84.1135 38.9665 83.9597 39.1793C83.8084 39.3896 83.6097 39.5601 83.3635 39.6909C83.1173 39.8191 82.8468 39.8832 82.5519 39.8832C82.239 39.8832 81.9659 39.8281 81.7326 39.7178C81.5018 39.6076 81.3095 39.4563 81.1556 39.264C81.0043 39.0716 80.8902 38.8511 80.8133 38.6024C80.7389 38.3511 80.7017 38.0857 80.7017 37.8061V37.6446C80.7017 37.3651 80.7389 37.101 80.8133 36.8522C80.8902 36.6009 81.0043 36.3791 81.1556 36.1868C81.3095 35.9945 81.5018 35.8432 81.7326 35.7329C81.9659 35.6226 82.239 35.5675 82.5519 35.5675C82.8776 35.5675 83.1622 35.6342 83.4058 35.7675C83.6494 35.8983 83.8404 36.0778 83.9789 36.306C84.12 36.5317 84.1969 36.7881 84.2097 37.0753H83.5327C83.5199 36.9035 83.4712 36.7484 83.3866 36.6099C83.3045 36.4714 83.1917 36.3612 83.0481 36.2791C82.907 36.1945 82.7416 36.1522 82.5519 36.1522C82.3339 36.1522 82.1506 36.1958 82.0018 36.283C81.8557 36.3676 81.739 36.483 81.6518 36.6291C81.5672 36.7727 81.5057 36.933 81.4672 37.1099C81.4313 37.2843 81.4133 37.4625 81.4133 37.6446V37.8061C81.4133 37.9882 81.4313 38.1677 81.4672 38.3447C81.5031 38.5216 81.5634 38.6819 81.648 38.8255C81.7352 38.9691 81.8518 39.0845 81.998 39.1716C82.1467 39.2563 82.3314 39.2986 82.5519 39.2986Z" fill="#064469"/>
<path d="M86.7522 35.6444V36.1906H84.502V35.6444H86.7522ZM85.2636 34.6328H85.9752V38.7755C85.9752 38.9165 85.997 39.0229 86.0406 39.0947C86.0842 39.1665 86.1406 39.2139 86.2099 39.237C86.2791 39.2601 86.3535 39.2716 86.433 39.2716C86.4919 39.2716 86.5535 39.2665 86.6176 39.2563C86.6843 39.2434 86.7343 39.2332 86.7676 39.2255L86.7714 39.8063C86.715 39.8243 86.6407 39.8409 86.5483 39.8563C86.4586 39.8743 86.3496 39.8832 86.2214 39.8832C86.047 39.8832 85.8868 39.8486 85.7406 39.7794C85.5944 39.7101 85.4778 39.5947 85.3906 39.4332C85.3059 39.2691 85.2636 39.0486 85.2636 38.7716V34.6328Z" fill="#064469"/>
<path d="M88.2331 38.9601V39.5332C88.2331 39.7666 88.1741 40.0127 88.0562 40.2717C87.9382 40.5333 87.7728 40.7512 87.56 40.9256L87.1561 40.6448C87.2381 40.532 87.3074 40.4166 87.3638 40.2986C87.4202 40.1833 87.4625 40.0627 87.4907 39.9371C87.5215 39.814 87.5369 39.6832 87.5369 39.5447V38.9601H88.2331Z" fill="#064469"/>
<path d="M91.9988 34.2059V39.8063H91.2564V34.2059H91.9988Z" fill="#064469"/>
<path d="M95.9375 35.6444H96.5837V39.7178C96.5837 40.0845 96.5094 40.3974 96.3606 40.6564C96.2119 40.9154 96.0042 41.1115 95.7375 41.2449C95.4734 41.3808 95.1682 41.4487 94.8221 41.4487C94.6785 41.4487 94.5092 41.4257 94.3143 41.3795C94.122 41.3359 93.9322 41.2603 93.745 41.1526C93.5604 41.0474 93.4053 40.9051 93.2796 40.7256L93.6527 40.3025C93.8271 40.5128 94.0092 40.6589 94.1989 40.741C94.3913 40.823 94.581 40.8641 94.7682 40.8641C94.9939 40.8641 95.1888 40.8218 95.3529 40.7371C95.517 40.6525 95.6439 40.5269 95.7337 40.3602C95.826 40.1961 95.8721 39.9935 95.8721 39.7525V36.5599L95.9375 35.6444ZM93.0719 37.7715V37.6908C93.0719 37.3728 93.1091 37.0843 93.1835 36.8253C93.2604 36.5637 93.3694 36.3394 93.5104 36.1522C93.654 35.965 93.8271 35.8214 94.0297 35.7214C94.2323 35.6188 94.4605 35.5675 94.7144 35.5675C94.9759 35.5675 95.2041 35.6137 95.399 35.706C95.5965 35.7957 95.7632 35.9278 95.8991 36.1022C96.0375 36.274 96.1465 36.4817 96.226 36.7253C96.3055 36.9689 96.3606 37.2446 96.3914 37.5523V37.9062C96.3632 38.2113 96.3081 38.4857 96.226 38.7293C96.1465 38.9729 96.0375 39.1806 95.8991 39.3524C95.7632 39.5242 95.5965 39.6563 95.399 39.7486C95.2016 39.8384 94.9708 39.8832 94.7067 39.8832C94.4579 39.8832 94.2323 39.8307 94.0297 39.7255C93.8297 39.6204 93.6579 39.4729 93.5143 39.2832C93.3707 39.0934 93.2604 38.8703 93.1835 38.6139C93.1091 38.3549 93.0719 38.0741 93.0719 37.7715ZM93.7835 37.6908V37.7715C93.7835 37.9792 93.804 38.1741 93.8451 38.3562C93.8886 38.5383 93.954 38.6985 94.0412 38.837C94.131 38.9755 94.2451 39.0845 94.3836 39.1639C94.522 39.2409 94.6874 39.2793 94.8798 39.2793C95.1157 39.2793 95.3106 39.2293 95.4644 39.1293C95.6183 39.0293 95.7401 38.8973 95.8298 38.7331C95.9221 38.569 95.9939 38.3908 96.0452 38.1985V37.2715C96.017 37.1305 95.9734 36.9945 95.9144 36.8638C95.858 36.7304 95.7837 36.6125 95.6914 36.5099C95.6016 36.4048 95.4901 36.3214 95.3567 36.2599C95.2234 36.1983 95.0669 36.1676 94.8874 36.1676C94.6926 36.1676 94.5246 36.2086 94.3836 36.2906C94.2451 36.3701 94.131 36.4804 94.0412 36.6214C93.954 36.7599 93.8886 36.9215 93.8451 37.1061C93.804 37.2882 93.7835 37.483 93.7835 37.6908Z" fill="#064469"/>
<path d="M98.3762 36.533V39.8063H97.6646V35.6444H98.3377L98.3762 36.533ZM98.2069 37.5677L97.9108 37.5561C97.9133 37.2715 97.9556 37.0087 98.0377 36.7676C98.1197 36.524 98.2351 36.3124 98.3839 36.1329C98.5326 35.9534 98.7095 35.815 98.9147 35.7175C99.1224 35.6175 99.3519 35.5675 99.6032 35.5675C99.8083 35.5675 99.993 35.5957 100.157 35.6521C100.321 35.706 100.461 35.7932 100.576 35.9137C100.694 36.0342 100.784 36.1906 100.846 36.383C100.907 36.5727 100.938 36.8048 100.938 37.0792V39.8063H100.222V37.0715C100.222 36.8535 100.19 36.6791 100.126 36.5484C100.062 36.415 99.9686 36.3189 99.8455 36.2599C99.7224 36.1983 99.5711 36.1676 99.3916 36.1676C99.2147 36.1676 99.0531 36.2047 98.907 36.2791C98.7634 36.3535 98.639 36.456 98.5339 36.5868C98.4313 36.7176 98.3505 36.8676 98.2915 37.0369C98.2351 37.2035 98.2069 37.3805 98.2069 37.5677Z" fill="#064469"/>
<path d="M102.792 35.6444V39.8063H102.076V35.6444H102.792ZM102.023 34.5405C102.023 34.4251 102.057 34.3277 102.126 34.2482C102.198 34.1687 102.303 34.1289 102.442 34.1289C102.578 34.1289 102.682 34.1687 102.753 34.2482C102.828 34.3277 102.865 34.4251 102.865 34.5405C102.865 34.6508 102.828 34.7457 102.753 34.8252C102.682 34.9021 102.578 34.9405 102.442 34.9405C102.303 34.9405 102.198 34.9021 102.126 34.8252C102.057 34.7457 102.023 34.6508 102.023 34.5405Z" fill="#064469"/>
<path d="M105.677 35.6444V36.1906H103.427V35.6444H105.677ZM104.188 34.6328H104.9V38.7755C104.9 38.9165 104.922 39.0229 104.965 39.0947C105.009 39.1665 105.065 39.2139 105.134 39.237C105.204 39.2601 105.278 39.2716 105.357 39.2716C105.416 39.2716 105.478 39.2665 105.542 39.2563C105.609 39.2434 105.659 39.2332 105.692 39.2255L105.696 39.8063C105.64 39.8243 105.565 39.8409 105.473 39.8563C105.383 39.8743 105.274 39.8832 105.146 39.8832C104.972 39.8832 104.811 39.8486 104.665 39.7794C104.519 39.7101 104.402 39.5947 104.315 39.4332C104.23 39.2691 104.188 39.0486 104.188 38.7716V34.6328Z" fill="#064469"/>
<path d="M107.285 35.6444V39.8063H106.569V35.6444H107.285ZM106.515 34.5405C106.515 34.4251 106.55 34.3277 106.619 34.2482C106.691 34.1687 106.796 34.1289 106.935 34.1289C107.07 34.1289 107.174 34.1687 107.246 34.2482C107.32 34.3277 107.358 34.4251 107.358 34.5405C107.358 34.6508 107.32 34.7457 107.246 34.8252C107.174 34.9021 107.07 34.9405 106.935 34.9405C106.796 34.9405 106.691 34.9021 106.619 34.8252C106.55 34.7457 106.515 34.6508 106.515 34.5405Z" fill="#064469"/>
<path d="M109.139 36.533V39.8063H108.427V35.6444H109.1L109.139 36.533ZM108.969 37.5677L108.673 37.5561C108.676 37.2715 108.718 37.0087 108.8 36.7676C108.882 36.524 108.997 36.3124 109.146 36.1329C109.295 35.9534 109.472 35.815 109.677 35.7175C109.885 35.6175 110.114 35.5675 110.366 35.5675C110.571 35.5675 110.755 35.5957 110.919 35.6521C111.084 35.706 111.223 35.7932 111.339 35.9137C111.457 36.0342 111.546 36.1906 111.608 36.383C111.669 36.5727 111.7 36.8048 111.7 37.0792V39.8063H110.985V37.0715C110.985 36.8535 110.953 36.6791 110.889 36.5484C110.825 36.415 110.731 36.3189 110.608 36.2599C110.485 36.1983 110.333 36.1676 110.154 36.1676C109.977 36.1676 109.816 36.2047 109.669 36.2791C109.526 36.3535 109.401 36.456 109.296 36.5868C109.194 36.7176 109.113 36.8676 109.054 37.0369C108.997 37.2035 108.969 37.3805 108.969 37.5677Z" fill="#064469"/>
<path d="M115.477 35.6444H116.124V39.7178C116.124 40.0845 116.049 40.3974 115.901 40.6564C115.752 40.9154 115.544 41.1115 115.277 41.2449C115.013 41.3808 114.708 41.4487 114.362 41.4487C114.218 41.4487 114.049 41.4257 113.854 41.3795C113.662 41.3359 113.472 41.2603 113.285 41.1526C113.1 41.0474 112.945 40.9051 112.82 40.7256L113.193 40.3025C113.367 40.5128 113.549 40.6589 113.739 40.741C113.931 40.823 114.121 40.8641 114.308 40.8641C114.534 40.8641 114.729 40.8218 114.893 40.7371C115.057 40.6525 115.184 40.5269 115.274 40.3602C115.366 40.1961 115.412 39.9935 115.412 39.7525V36.5599L115.477 35.6444ZM112.612 37.7715V37.6908C112.612 37.3728 112.649 37.0843 112.723 36.8253C112.8 36.5637 112.909 36.3394 113.05 36.1522C113.194 35.965 113.367 35.8214 113.57 35.7214C113.772 35.6188 114 35.5675 114.254 35.5675C114.516 35.5675 114.744 35.6137 114.939 35.706C115.136 35.7957 115.303 35.9278 115.439 36.1022C115.577 36.274 115.686 36.4817 115.766 36.7253C115.845 36.9689 115.901 37.2446 115.931 37.5523V37.9062C115.903 38.2113 115.848 38.4857 115.766 38.7293C115.686 38.9729 115.577 39.1806 115.439 39.3524C115.303 39.5242 115.136 39.6563 114.939 39.7486C114.742 39.8384 114.511 39.8832 114.247 39.8832C113.998 39.8832 113.772 39.8307 113.57 39.7255C113.37 39.6204 113.198 39.4729 113.054 39.2832C112.911 39.0934 112.8 38.8703 112.723 38.6139C112.649 38.3549 112.612 38.0741 112.612 37.7715ZM113.323 37.6908V37.7715C113.323 37.9792 113.344 38.1741 113.385 38.3562C113.429 38.5383 113.494 38.6985 113.581 38.837C113.671 38.9755 113.785 39.0845 113.924 39.1639C114.062 39.2409 114.227 39.2793 114.42 39.2793C114.656 39.2793 114.851 39.2293 115.004 39.1293C115.158 39.0293 115.28 38.8973 115.37 38.7331C115.462 38.569 115.534 38.3908 115.585 38.1985V37.2715C115.557 37.1305 115.513 36.9945 115.454 36.8638C115.398 36.7304 115.324 36.6125 115.231 36.5099C115.142 36.4048 115.03 36.3214 114.897 36.2599C114.763 36.1983 114.607 36.1676 114.427 36.1676C114.233 36.1676 114.065 36.2086 113.924 36.2906C113.785 36.3701 113.671 36.4804 113.581 36.6214C113.494 36.7599 113.429 36.9215 113.385 37.1061C113.344 37.2882 113.323 37.483 113.323 37.6908Z" fill="#064469"/>
<path d="M122.647 38.0254H123.386C123.347 38.3793 123.246 38.696 123.082 38.9755C122.918 39.255 122.686 39.4768 122.386 39.6409C122.086 39.8025 121.711 39.8832 121.263 39.8832C120.934 39.8832 120.636 39.8217 120.366 39.6986C120.1 39.5755 119.87 39.4011 119.678 39.1755C119.485 38.9473 119.337 38.6742 119.232 38.3562C119.129 38.0357 119.078 37.6792 119.078 37.2869V36.7291C119.078 36.3368 119.129 35.9817 119.232 35.6637C119.337 35.3431 119.487 35.0688 119.682 34.8405C119.879 34.6123 120.116 34.4367 120.393 34.3136C120.67 34.1905 120.982 34.1289 121.328 34.1289C121.751 34.1289 122.109 34.2084 122.401 34.3674C122.693 34.5264 122.92 34.7469 123.082 35.029C123.246 35.3085 123.347 35.6329 123.386 36.0022H122.647C122.611 35.7406 122.545 35.5162 122.447 35.329C122.35 35.1393 122.211 34.9931 122.032 34.8905C121.852 34.788 121.618 34.7367 121.328 34.7367C121.079 34.7367 120.86 34.7841 120.67 34.879C120.483 34.9739 120.325 35.1085 120.197 35.2829C120.071 35.4573 119.977 35.6662 119.912 35.9099C119.848 36.1535 119.816 36.424 119.816 36.7215V37.2869C119.816 37.5613 119.844 37.819 119.901 38.06C119.96 38.3011 120.048 38.5126 120.166 38.6947C120.284 38.8767 120.434 39.0203 120.616 39.1255C120.798 39.2281 121.014 39.2793 121.263 39.2793C121.578 39.2793 121.829 39.2293 122.016 39.1293C122.204 39.0293 122.345 38.8857 122.44 38.6985C122.537 38.5113 122.606 38.287 122.647 38.0254Z" fill="#064469"/>
<path d="M125.001 33.8982V39.8063H124.29V33.8982H125.001ZM124.832 37.5677L124.536 37.5561C124.538 37.2715 124.581 37.0087 124.663 36.7676C124.745 36.524 124.86 36.3124 125.009 36.1329C125.158 35.9534 125.335 35.815 125.54 35.7175C125.747 35.6175 125.977 35.5675 126.228 35.5675C126.433 35.5675 126.618 35.5957 126.782 35.6521C126.946 35.706 127.086 35.7932 127.201 35.9137C127.319 36.0342 127.409 36.1906 127.471 36.383C127.532 36.5727 127.563 36.8048 127.563 37.0792V39.8063H126.848V37.0715C126.848 36.8535 126.816 36.6791 126.751 36.5484C126.687 36.415 126.594 36.3189 126.471 36.2599C126.348 36.1983 126.196 36.1676 126.017 36.1676C125.84 36.1676 125.678 36.2047 125.532 36.2791C125.388 36.3535 125.264 36.456 125.159 36.5868C125.056 36.7176 124.976 36.8676 124.917 37.0369C124.86 37.2035 124.832 37.3805 124.832 37.5677Z" fill="#064469"/>
<path d="M131.083 39.0947V36.9522C131.083 36.7881 131.049 36.6458 130.983 36.5253C130.918 36.4022 130.821 36.3073 130.69 36.2406C130.559 36.174 130.398 36.1406 130.206 36.1406C130.026 36.1406 129.868 36.1714 129.732 36.233C129.599 36.2945 129.494 36.3753 129.417 36.4753C129.343 36.5753 129.305 36.683 129.305 36.7984H128.594C128.594 36.6497 128.632 36.5022 128.709 36.356C128.786 36.2099 128.896 36.0778 129.04 35.9599C129.186 35.8393 129.361 35.7445 129.563 35.6752C129.768 35.6034 129.997 35.5675 130.248 35.5675C130.55 35.5675 130.817 35.6188 131.048 35.7214C131.281 35.8239 131.463 35.9791 131.594 36.1868C131.727 36.3919 131.794 36.6497 131.794 36.9599V38.8985C131.794 39.037 131.806 39.1845 131.829 39.3409C131.854 39.4973 131.892 39.6319 131.94 39.7448V39.8063H131.198C131.162 39.7242 131.134 39.6153 131.113 39.4794C131.093 39.3409 131.083 39.2127 131.083 39.0947ZM131.206 37.283L131.213 37.7831H130.494C130.291 37.7831 130.111 37.7997 129.952 37.8331C129.793 37.8638 129.659 37.9113 129.552 37.9754C129.444 38.0395 129.362 38.1203 129.305 38.2177C129.249 38.3126 129.221 38.4241 129.221 38.5524C129.221 38.6831 129.25 38.8024 129.309 38.9101C129.368 39.0178 129.457 39.1037 129.575 39.1678C129.695 39.2293 129.843 39.2601 130.017 39.2601C130.235 39.2601 130.427 39.2139 130.594 39.1216C130.761 39.0293 130.893 38.9165 130.99 38.7831C131.09 38.6498 131.144 38.5203 131.152 38.3947L131.456 38.737C131.438 38.8447 131.389 38.9639 131.309 39.0947C131.23 39.2255 131.124 39.3511 130.99 39.4717C130.859 39.5896 130.703 39.6883 130.521 39.7678C130.341 39.8448 130.139 39.8832 129.913 39.8832C129.631 39.8832 129.384 39.8281 129.171 39.7178C128.961 39.6076 128.796 39.4601 128.678 39.2755C128.563 39.0883 128.505 38.8793 128.505 38.6485C128.505 38.4254 128.549 38.2293 128.636 38.06C128.723 37.8882 128.849 37.7459 129.013 37.6331C129.177 37.5177 129.375 37.4305 129.605 37.3715C129.836 37.3125 130.094 37.283 130.379 37.283H131.206Z" fill="#064469"/>
<path d="M133.625 36.533V39.8063H132.913V35.6444H133.587L133.625 36.533ZM133.456 37.5677L133.16 37.5561C133.162 37.2715 133.204 37.0087 133.287 36.7676C133.369 36.524 133.484 36.3124 133.633 36.1329C133.781 35.9534 133.958 35.815 134.164 35.7175C134.371 35.6175 134.601 35.5675 134.852 35.5675C135.057 35.5675 135.242 35.5957 135.406 35.6521C135.57 35.706 135.71 35.7932 135.825 35.9137C135.943 36.0342 136.033 36.1906 136.094 36.383C136.156 36.5727 136.187 36.8048 136.187 37.0792V39.8063H135.471V37.0715C135.471 36.8535 135.439 36.6791 135.375 36.5484C135.311 36.415 135.217 36.3189 135.094 36.2599C134.971 36.1983 134.82 36.1676 134.64 36.1676C134.464 36.1676 134.302 36.2047 134.156 36.2791C134.012 36.3535 133.888 36.456 133.783 36.5868C133.68 36.7176 133.599 36.8676 133.54 37.0369C133.484 37.2035 133.456 37.3805 133.456 37.5677Z" fill="#064469"/>
<path d="M139.964 35.6444H140.61V39.7178C140.61 40.0845 140.536 40.3974 140.387 40.6564C140.238 40.9154 140.031 41.1115 139.764 41.2449C139.5 41.3808 139.195 41.4487 138.848 41.4487C138.705 41.4487 138.536 41.4257 138.341 41.3795C138.148 41.3359 137.959 41.2603 137.771 41.1526C137.587 41.0474 137.432 40.9051 137.306 40.7256L137.679 40.3025C137.854 40.5128 138.036 40.6589 138.225 40.741C138.418 40.823 138.607 40.8641 138.795 40.8641C139.02 40.8641 139.215 40.8218 139.379 40.7371C139.543 40.6525 139.67 40.5269 139.76 40.3602C139.852 40.1961 139.899 39.9935 139.899 39.7525V36.5599L139.964 35.6444ZM137.098 37.7715V37.6908C137.098 37.3728 137.136 37.0843 137.21 36.8253C137.287 36.5637 137.396 36.3394 137.537 36.1522C137.68 35.965 137.854 35.8214 138.056 35.7214C138.259 35.6188 138.487 35.5675 138.741 35.5675C139.002 35.5675 139.231 35.6137 139.425 35.706C139.623 35.7957 139.79 35.9278 139.925 36.1022C140.064 36.274 140.173 36.4817 140.252 36.7253C140.332 36.9689 140.387 37.2446 140.418 37.5523V37.9062C140.39 38.2113 140.335 38.4857 140.252 38.7293C140.173 38.9729 140.064 39.1806 139.925 39.3524C139.79 39.5242 139.623 39.6563 139.425 39.7486C139.228 39.8384 138.997 39.8832 138.733 39.8832C138.484 39.8832 138.259 39.8307 138.056 39.7255C137.856 39.6204 137.684 39.4729 137.541 39.2832C137.397 39.0934 137.287 38.8703 137.21 38.6139C137.136 38.3549 137.098 38.0741 137.098 37.7715ZM137.81 37.6908V37.7715C137.81 37.9792 137.83 38.1741 137.871 38.3562C137.915 38.5383 137.98 38.6985 138.068 38.837C138.157 38.9755 138.272 39.0845 138.41 39.1639C138.548 39.2409 138.714 39.2793 138.906 39.2793C139.142 39.2793 139.337 39.2293 139.491 39.1293C139.645 39.0293 139.767 38.8973 139.856 38.7331C139.949 38.569 140.02 38.3908 140.072 38.1985V37.2715C140.043 37.1305 140 36.9945 139.941 36.8638C139.884 36.7304 139.81 36.6125 139.718 36.5099C139.628 36.4048 139.516 36.3214 139.383 36.2599C139.25 36.1983 139.093 36.1676 138.914 36.1676C138.719 36.1676 138.551 36.2086 138.41 36.2906C138.272 36.3701 138.157 36.4804 138.068 36.6214C137.98 36.7599 137.915 36.9215 137.871 37.1061C137.83 37.2882 137.81 37.483 137.81 37.6908Z" fill="#064469"/>
<path d="M143.418 39.8832C143.128 39.8832 142.865 39.8345 142.63 39.7371C142.396 39.6371 142.195 39.4973 142.026 39.3178C141.859 39.1383 141.731 38.9255 141.641 38.6793C141.551 38.4331 141.506 38.1639 141.506 37.8715V37.71C141.506 37.3715 141.556 37.0702 141.656 36.8061C141.756 36.5394 141.892 36.3137 142.064 36.1291C142.236 35.9445 142.431 35.8047 142.649 35.7098C142.867 35.615 143.092 35.5675 143.326 35.5675C143.623 35.5675 143.88 35.6188 144.095 35.7214C144.313 35.8239 144.491 35.9675 144.63 36.1522C144.768 36.3342 144.871 36.5496 144.937 36.7984C145.004 37.0446 145.037 37.3138 145.037 37.6061V37.9254H141.929V37.3446H144.326V37.2907C144.316 37.1061 144.277 36.9266 144.21 36.7522C144.146 36.5778 144.044 36.4342 143.903 36.3214C143.762 36.2086 143.569 36.1522 143.326 36.1522C143.164 36.1522 143.015 36.1868 142.88 36.256C142.744 36.3227 142.627 36.4227 142.53 36.5561C142.432 36.6894 142.356 36.8522 142.303 37.0446C142.249 37.2369 142.222 37.4587 142.222 37.71V37.8715C142.222 38.069 142.249 38.2549 142.303 38.4293C142.359 38.6011 142.44 38.7524 142.545 38.8832C142.653 39.0139 142.782 39.1165 142.933 39.1909C143.087 39.2652 143.262 39.3024 143.457 39.3024C143.708 39.3024 143.921 39.2511 144.095 39.1486C144.269 39.046 144.422 38.9088 144.553 38.737L144.984 39.0793C144.894 39.2152 144.78 39.3447 144.641 39.4678C144.503 39.5909 144.332 39.6909 144.13 39.7678C143.93 39.8448 143.692 39.8832 143.418 39.8832Z" fill="#064469"/>
<defs>
<radialGradient id="paint0_radial_49_1322" cx="0" cy="0" r="1" gradientUnits="userSpaceOnUse" gradientTransform="translate(-1.33648 -11.0493) scale(54.4189 54.4189)">
<stop stop-color="#9BCCDB"/>
<stop offset="1" stop-color="#062C44"/>
</radialGradient>
<radialGradient id="paint1_radial_49_1322" cx="0" cy="0" r="1" gradientUnits="userSpaceOnUse" gradientTransform="translate(-1.20064 -9.35051) scale(75.2138 75.2138)">
<stop stop-color="#568FA9"/>
<stop offset="1" stop-color="#064469"/>
</radialGradient>
</defs>
</svg>
